<svg width="32" height="32" viewBox="0 0 32 32" fill="none" xmlns="http://www.w3.org/2000/svg">
<path fill-rule="evenodd" clip-rule="evenodd" d="M8 16C8 15.7347 8.10536 15.4804 8.29289 15.2928C8.48043 15.1053 8.73478 15 9 15L20.586 15L16.292 10.708C16.199 10.615 16.1253 10.5046 16.075 10.3831C16.0246 10.2616 15.9987 10.1314 15.9987 9.99996C15.9987 9.86847 16.0246 9.73827 16.075 9.61679C16.1253 9.49531 16.199 9.38493 16.292 9.29196C16.385 9.19898 16.4954 9.12523 16.6168 9.07491C16.7383 9.02459 16.8685 8.99869 17 8.99869C17.1315 8.99869 17.2617 9.02459 17.3832 9.07491C17.5046 9.12523 17.615 9.19898 17.708 9.29196L23.708 15.292C23.8011 15.3848 23.875 15.4952 23.9254 15.6167C23.9758 15.7382 24.0018 15.8684 24.0018 16C24.0018 16.1315 23.9758 16.2617 23.9254 16.3832C23.875 16.5047 23.8011 16.6151 23.708 16.708L17.708 22.708C17.615 22.8009 17.5046 22.8747 17.3832 22.925C17.2617 22.9753 17.1315 23.0012 17 23.0012C16.8685 23.0012 16.7383 22.9753 16.6168 22.925C16.4954 22.8747 16.385 22.8009 16.292 22.708C16.1042 22.5202 15.9987 22.2655 15.9987 22C15.9987 21.8685 16.0246 21.7383 16.075 21.6168C16.1253 21.4953 16.199 21.3849 16.292 21.292L20.586 17L9 17C8.73478 17 8.48043 16.8946 8.29289 16.7071C8.10536 16.5195 8 16.2652 8 16Z" fill="white"/>
</svg>
