<svg width="11" height="11" viewBox="0 0 11 11" fill="none" xmlns="http://www.w3.org/2000/svg">
<path d="M0.201342 4.89492C0.330259 4.76099 0.505107 4.68575 0.687423 4.68575H8.65191L5.70011 1.62059C5.6362 1.55419 5.5855 1.47536 5.55091 1.3886C5.51632 1.30185 5.49852 1.20886 5.49852 1.11496C5.49852 1.02106 5.51632 0.928075 5.55091 0.84132C5.5855 0.754565 5.6362 0.675738 5.70011 0.609339C5.76403 0.542939 5.8399 0.490268 5.92341 0.454333C6.00692 0.418398 6.09642 0.399902 6.18681 0.399902C6.2772 0.399902 6.3667 0.418398 6.45021 0.454333C6.53371 0.490268 6.60959 0.542939 6.6735 0.609339L10.798 4.89428C10.8621 4.96062 10.9129 5.03943 10.9475 5.12619C10.9822 5.21295 11 5.30597 11 5.3999C11 5.49384 10.9822 5.58685 10.9475 5.67362C10.9129 5.76038 10.8621 5.83919 10.798 5.90553L6.6735 10.1905C6.60959 10.2569 6.53371 10.3095 6.45021 10.3455C6.3667 10.3814 6.2772 10.3999 6.18681 10.3999C6.09642 10.3999 6.00692 10.3814 5.92341 10.3455C5.8399 10.3095 5.76403 10.2569 5.70011 10.1905C5.6362 10.1241 5.5855 10.0452 5.55091 9.95849C5.51632 9.87173 5.49852 9.77875 5.49852 9.68484C5.49852 9.59094 5.51632 9.49796 5.55091 9.4112C5.5855 9.32445 5.6362 9.24562 5.70011 9.17922L8.65191 6.11406H0.687423C0.505107 6.11406 0.330259 6.03882 0.201342 5.90489C0.0724251 5.77096 0 5.58931 0 5.3999C0 5.2105 0.0724251 5.02885 0.201342 4.89492Z" fill="#FF2E59"/>
</svg>
