<svg width="25" height="24" viewBox="0 0 25 24" fill="none" xmlns="http://www.w3.org/2000/svg">
<rect x="0.5" width="24" height="24" rx="12" fill="#5964F2"/>
<g clip-path="url(#clip0_728_1334)">
<path d="M17.5007 6.97645C16.5011 6.51923 15.4393 6.18599 14.3311 6C14.1917 6.24024 14.0367 6.56572 13.9281 6.82146C12.7495 6.65097 11.5793 6.65097 10.4168 6.82146C10.3083 6.56572 10.1455 6.24024 10.0138 6C8.89787 6.18599 7.83617 6.51923 6.84345 6.97645C4.8363 9.9368 4.29382 12.8274 4.56506 15.6793C5.89799 16.6479 7.18445 17.2369 8.44841 17.6245C8.75839 17.2059 9.03739 16.7565 9.27763 16.2837C8.82039 16.1133 8.38641 15.904 7.96793 15.656C8.07643 15.5785 8.18493 15.4933 8.28567 15.4081C10.812 16.5627 13.5485 16.5627 16.0438 15.4081C16.1523 15.4933 16.2531 15.5785 16.3615 15.656C15.9431 15.904 15.5091 16.1133 15.0519 16.2837C15.2921 16.7565 15.5711 17.2059 15.8811 17.6245C17.1443 17.2369 18.4385 16.6479 19.7644 15.6793C20.0976 12.3779 19.2367 9.5106 17.5007 6.97645ZM9.62635 13.9201C8.86688 13.9201 8.24691 13.2304 8.24691 12.3857C8.24691 11.541 8.85138 10.8513 9.62635 10.8513C10.3935 10.8513 11.0212 11.541 11.0057 12.3857C11.0057 13.2304 10.3935 13.9201 9.62635 13.9201ZM14.7187 13.9201C13.9591 13.9201 13.3384 13.2304 13.3384 12.3857C13.3384 11.541 13.9437 10.8513 14.7187 10.8513C15.4859 10.8513 16.1135 11.541 16.0981 12.3857C16.0981 13.2304 15.4936 13.9201 14.7187 13.9201Z" fill="white"/>
</g>
<defs>
<clipPath id="clip0_728_1334">
<path d="M4.5 12C4.5 7.58172 8.08172 4 12.5 4C16.9183 4 20.5 7.58172 20.5 12C20.5 16.4183 16.9183 20 12.5 20C8.08172 20 4.5 16.4183 4.5 12Z" fill="white"/>
</clipPath>
</defs>
</svg>
