<svg width="24" height="25" viewBox="0 0 24 25" fill="none" xmlns="http://www.w3.org/2000/svg">
<g clip-path="url(#clip0_474_254)">
<path d="M19.5011 5.06478C18.0016 4.37894 16.409 3.87909 14.7467 3.6001C14.5375 3.96046 14.305 4.44868 14.1422 4.83229C12.3742 4.57655 10.6189 4.57655 8.8752 4.83229C8.71245 4.44868 8.46832 3.96046 8.2707 3.6001C6.59681 3.87909 5.00426 4.37894 3.51517 5.06478C0.504451 9.5053 -0.309263 13.8412 0.0975931 18.119C2.09699 19.572 4.02667 20.4555 5.92261 21.0368C6.38759 20.409 6.80608 19.7348 7.16644 19.0257C6.48059 18.77 5.82962 18.4561 5.2019 18.0841C5.36464 17.9679 5.52739 17.84 5.67851 17.7122C9.46807 19.4442 13.5727 19.4442 17.3157 17.7122C17.4784 17.84 17.6296 17.9679 17.7923 18.0841C17.1646 18.4561 16.5136 18.77 15.8278 19.0257C16.1881 19.7348 16.6066 20.409 17.0716 21.0368C18.9664 20.4555 20.9077 19.572 22.8966 18.119C23.3964 13.167 22.105 8.866 19.5011 5.06478ZM7.68952 15.4803C6.55032 15.4803 5.62036 14.4457 5.62036 13.1787C5.62036 11.9116 6.52707 10.877 7.68952 10.877C8.84032 10.877 9.78187 11.9116 9.75862 13.1787C9.75862 14.4457 8.84032 15.4803 7.68952 15.4803ZM15.328 15.4803C14.1887 15.4803 13.2576 14.4457 13.2576 13.1787C13.2576 11.9116 14.1655 10.877 15.328 10.877C16.4788 10.877 17.4203 11.9116 17.3971 13.1787C17.3971 14.4457 16.4904 15.4803 15.328 15.4803Z" fill="white"/>
</g>
<defs>
<clipPath id="clip0_474_254">
<rect width="24" height="24" fill="white" transform="translate(0 0.600098)"/>
</clipPath>
</defs>
</svg>
