<svg width="20" height="19" viewBox="0 0 20 19" fill="none" xmlns="http://www.w3.org/2000/svg">
<path d="M10.0001 6.47589C8.27981 6.47589 6.87589 7.8798 6.87589 9.6001C6.87589 11.3204 8.27981 12.7243 10.0001 12.7243C11.7204 12.7243 13.1243 11.3204 13.1243 9.6001C13.1243 7.8798 11.7204 6.47589 10.0001 6.47589ZM19.3704 9.6001C19.3704 8.3064 19.3821 7.02433 19.3095 5.73293C19.2368 4.23293 18.8946 2.90168 17.7978 1.8048C16.6985 0.705581 15.3696 0.365741 13.8696 0.293081C12.5759 0.220431 11.2938 0.232141 10.0024 0.232141C8.7087 0.232141 7.42668 0.220431 6.13527 0.293081C4.63527 0.365741 3.30402 0.707931 2.20714 1.8048C1.10792 2.90402 0.768085 4.23293 0.695435 5.73293C0.622775 7.02668 0.634485 8.3087 0.634485 9.6001C0.634485 10.8915 0.622775 12.1759 0.695435 13.4673C0.768085 14.9673 1.11027 16.2986 2.20714 17.3954C3.30636 18.4946 4.63527 18.8345 6.13527 18.9071C7.42902 18.9798 8.71101 18.9681 10.0024 18.9681C11.2962 18.9681 12.5782 18.9798 13.8696 18.9071C15.3696 18.8345 16.7009 18.4923 17.7978 17.3954C18.897 16.2962 19.2368 14.9673 19.3095 13.4673C19.3845 12.1759 19.3704 10.8939 19.3704 9.6001ZM10.0001 14.4071C7.33996 14.4071 5.19308 12.2603 5.19308 9.6001C5.19308 6.93996 7.33996 4.79308 10.0001 4.79308C12.6603 4.79308 14.8071 6.93996 14.8071 9.6001C14.8071 12.2603 12.6603 14.4071 10.0001 14.4071ZM15.004 5.71886C14.3829 5.71886 13.8813 5.2173 13.8813 4.59621C13.8813 3.97511 14.3829 3.47355 15.004 3.47355C15.6251 3.47355 16.1267 3.97511 16.1267 4.59621C16.1268 4.74369 16.0979 4.88976 16.0416 5.02605C15.9852 5.16234 15.9025 5.28617 15.7983 5.39046C15.694 5.49474 15.5701 5.57743 15.4338 5.63378C15.2976 5.69014 15.1515 5.71905 15.004 5.71886Z" fill="white"/>
</svg>
