<svg width="85" height="20" viewBox="0 0 85 20" fill="none" xmlns="http://www.w3.org/2000/svg">
<path d="M17.1405 15.6489L11.142 9.03556L15.9192 4.69778C16.3503 4.27111 16.5658 3.70222 16.5658 3.02667C16.5658 1.78222 15.5241 0.680002 14.1951 0.680002C13.5486 0.680002 12.8661 1 12.4351 1.42667L5.93367 7.64889V2.59556C5.93367 1.17333 4.74833 0 3.31156 0C1.87479 0 0.689453 1.17333 0.689453 2.59556V16.8933C0.689453 18.3156 1.87479 19.4533 3.31156 19.4533C4.74833 19.4533 5.93367 18.3156 5.93367 16.8933V13.7289L7.83739 11.9867L13.8718 18.7422C14.231 19.1689 14.8417 19.4533 15.4882 19.4533C16.7813 19.4533 17.787 18.3867 17.787 17.1778C17.787 16.5378 17.4638 15.9689 17.1405 15.6489Z" fill="white"/>
<path d="M33.4936 0.680002C32.0568 0.680002 30.8715 1.85333 30.8715 3.24V3.38222C30.2609 1.92444 28.3571 0.573334 25.8787 0.573334C21.9635 0.573334 17.2222 3.70222 17.2222 10.0311C17.2222 16.5022 21.9276 19.5244 25.8787 19.5244C28.7163 19.5244 30.4405 17.96 30.8715 16.9644C30.8715 18.3511 32.0568 19.4889 33.4936 19.4889C34.8945 19.4889 36.1516 18.3511 36.1516 16.9289V3.24C36.1516 1.85333 34.8945 0.680002 33.4936 0.680002ZM26.8485 15.08C24.6575 15.08 22.4664 13.3733 22.4664 10.0311C22.4664 6.72445 24.6575 5.01778 26.8485 5.01778C28.6445 5.01778 31.087 6.29778 31.087 10.0311C31.087 13.8 28.6445 15.08 26.8485 15.08Z" fill="white"/>
<path d="M63.695 0.680002C62.7611 0.680002 61.7913 1.24889 61.5039 2.06667L58.3071 11.9156L54.356 2.24444C53.925 1.24889 53.1347 0.680002 51.9853 0.680002C50.8359 0.680002 50.0457 1.24889 49.6146 2.24444L45.6276 11.9156L42.4667 2.06667C42.1793 1.21333 41.2095 0.680002 40.2756 0.680002C38.8748 0.680002 37.7972 1.74667 37.7972 3.13333C37.7972 3.48889 38.0127 3.88 38.1564 4.34222L42.79 17.3556C43.221 18.6711 44.119 19.3467 45.3043 19.3467C46.3819 19.3467 47.3517 18.6711 47.8905 17.3556L51.9853 8.07555L56.0442 17.3556C56.583 18.6711 57.481 19.3467 58.6663 19.3467C59.7439 19.3467 60.7137 18.6711 61.1447 17.3556L65.8142 4.34222C65.9579 3.88 66.1734 3.48889 66.1734 3.13333C66.1734 1.74667 65.0959 0.680002 63.695 0.680002Z" fill="white"/>
<path d="M82.0618 0.680002C80.6251 0.680002 79.4397 1.85333 79.4397 3.24V3.38222C78.8291 1.92444 76.9254 0.573334 74.4469 0.573334C70.5317 0.573334 65.7904 3.70222 65.7904 10.0311C65.7904 16.5022 70.4958 19.5244 74.4469 19.5244C77.2846 19.5244 79.0087 17.96 79.4397 16.9644C79.4397 18.3511 80.6251 19.4889 82.0618 19.4889C83.4627 19.4889 84.7199 18.3511 84.7199 16.9289V3.24C84.7199 1.85333 83.4627 0.680002 82.0618 0.680002ZM75.4168 15.08C73.2257 15.08 71.0346 13.3733 71.0346 10.0311C71.0346 6.72445 73.2257 5.01778 75.4168 5.01778C77.2127 5.01778 79.6552 6.29778 79.6552 10.0311C79.6552 13.8 77.2127 15.08 75.4168 15.08Z" fill="white"/>
</svg>
