<svg width="24" height="24" viewBox="0 0 24 24" fill="none" xmlns="http://www.w3.org/2000/svg">
<g clip-path="url(#clip0_759_1374)">
<path d="M12 24C18.6274 24 24 18.6274 24 12C24 5.37258 18.6274 0 12 0C5.37258 0 0 5.37258 0 12C0 18.6274 5.37258 24 12 24Z" fill="#FF2E59"/>
<path d="M20.9429 17.1567C20.8755 15.6797 20.4648 13.0782 19.3946 11.4871C19.5351 10.6086 19.5657 9.71574 19.4857 8.82951C19.4793 8.78994 19.4747 8.73748 19.4684 8.66386C19.4183 8.09148 19.2917 6.66327 17.9956 7.04609C16.8517 7.38382 15.5201 8.35466 15.0037 8.75405C13.048 8.1688 10.9664 8.1688 9.01072 8.75405C8.4934 8.35466 7.16183 7.38382 6.01879 7.04609C4.72183 6.66327 4.59615 8.09148 4.54514 8.66386C4.53968 8.73288 4.53421 8.78994 4.52875 8.82951C4.44387 9.71666 4.46958 10.6111 4.60525 11.4917C3.53235 13.0828 3.12067 15.6843 3.05692 17.1613C3.03564 17.887 3.15795 18.6097 3.41668 19.2871L3.42579 19.299C4.47502 20.5634 5.78515 21.5807 7.26441 22.2796C8.74367 22.9786 10.3563 23.3424 11.9893 23.3454C13.6223 23.3485 15.2363 22.9908 16.7181 22.2974C18.1999 21.604 19.5138 20.5916 20.5677 19.3312C20.8378 18.6397 20.9655 17.8998 20.9429 17.1567V17.1567Z" fill="#C47031"/>
<path d="M15.5308 12.826C14.7332 12.6804 14.5558 11.5457 15.3523 11.3967C16.1489 11.2476 16.83 11.4108 16.9958 12.0597C17.1616 12.7086 16.3661 12.8881 15.9222 12.8717C15.791 12.865 15.6603 12.8497 15.5308 12.826V12.826Z" fill="#FFFCF3"/>
<path d="M17.5113 13.6961C16.4104 13.233 15.5865 13.8204 15.1327 14.2843C15.0984 14.3186 15.0742 14.3609 15.0625 14.4068C15.0508 14.4528 15.052 14.5008 15.066 14.5462C15.0801 14.5915 15.1064 14.6326 15.1424 14.6653C15.1784 14.6981 15.2228 14.7213 15.2712 14.7326C16.61 15.0687 17.3436 14.5219 17.6407 14.0416C17.6583 14.0112 17.6689 13.9777 17.6719 13.9432C17.6748 13.9086 17.67 13.8739 17.6578 13.8413C17.6456 13.8086 17.6262 13.7788 17.601 13.7538C17.5757 13.7288 17.5451 13.7091 17.5113 13.6961Z" fill="black"/>
<path d="M8.46861 12.826C9.26643 12.6804 9.44489 11.5457 8.64707 11.3967C7.84925 11.2476 7.17006 11.4108 7.0042 12.0597C6.83833 12.7086 7.63405 12.8881 8.0781 12.8717C8.20896 12.865 8.33935 12.8497 8.46861 12.826V12.826Z" fill="#FFFCF3"/>
<path d="M6.4869 13.6961C7.58905 13.233 8.41225 13.8204 8.86715 14.2843C8.90144 14.3186 8.92567 14.3608 8.93742 14.4067C8.94916 14.4525 8.94802 14.5006 8.93409 14.5459C8.92017 14.5912 8.89395 14.6323 8.85806 14.6651C8.82216 14.6979 8.77784 14.7211 8.72949 14.7326C7.38941 15.0687 6.65646 14.5219 6.35928 14.0416C6.34176 14.0113 6.33115 13.9779 6.32815 13.9435C6.32515 13.9091 6.32982 13.8745 6.34186 13.8419C6.35389 13.8093 6.37302 13.7795 6.39801 13.7543C6.423 13.7292 6.45329 13.7094 6.4869 13.6961V13.6961Z" fill="black"/>
<path d="M15.7091 8.98698C15.7091 8.98698 16.7997 8.15408 17.702 7.90824C18.4086 7.71489 18.5987 8.07359 18.6994 8.50841C18.8047 8.96598 18.7852 9.88286 18.6062 10.9091C18.2669 10.6099 17.5286 9.7665 15.7091 8.98698Z" fill="#F4F4F4"/>
<path d="M8.2909 8.98698C8.2909 8.98698 7.19937 8.15408 6.29799 7.90824C5.59142 7.71489 5.40033 8.07359 5.30059 8.50841C5.19526 8.96598 5.21484 9.88286 5.39381 10.9091C5.73311 10.6099 6.47136 9.7665 8.2909 8.98698Z" fill="#F4F4F4"/>
<path d="M20.8757 16.1693C20.6562 16.394 20.4071 16.5884 20.135 16.747C18.9307 17.4394 17.453 17.239 16.2404 16.6766C15.7173 16.4442 15.2346 16.1313 14.8101 15.7495C14.1969 15.1754 13.5947 14.7024 12.7502 14.4957C12.5043 14.435 12.2521 14.4029 11.9986 14.4H11.9913C11.7379 14.403 11.4857 14.4351 11.2397 14.4957C10.3952 14.7024 9.79393 15.1754 9.17989 15.7495C8.75671 16.1312 8.27519 16.4441 7.75322 16.6766C6.54063 17.239 5.06294 17.4394 3.85856 16.747C3.59116 16.5904 3.34605 16.3992 3.12973 16.1783C3.09329 16.4997 3.06961 16.7976 3.05685 17.0584C3.03577 17.7745 3.15968 18.4875 3.42126 19.1554C4.47162 20.4001 5.78508 21.401 7.2688 22.0873C8.75253 22.7736 10.3703 23.1286 12.0077 23.1273C12.1152 23.1273 12.2218 23.1273 12.3284 23.1273C12.374 23.1273 12.4195 23.1273 12.4623 23.1218C12.5243 23.1218 12.5862 23.1173 12.6445 23.1137L12.7949 23.1038L12.9607 23.0921L13.1429 23.0749L13.2786 23.0614L13.4672 23.0379C13.5082 23.0325 13.5492 23.028 13.5893 23.0216C13.654 23.0135 13.7177 23.0027 13.7815 22.9928L13.899 22.9657C13.9701 22.9539 14.0402 22.9404 14.1104 22.9269L14.2015 22.9097C14.2744 22.8953 14.3473 22.8799 14.4192 22.8637L14.504 22.8456C14.5778 22.8294 14.6506 22.8113 14.7244 22.7933L14.8037 22.7743C14.8784 22.7554 14.9522 22.7346 15.0251 22.7138L15.1007 22.694L15.3239 22.6272L15.3931 22.6064C15.4733 22.5811 15.5526 22.555 15.6318 22.5279L15.6828 22.5116C15.7657 22.4827 15.8477 22.4529 15.9297 22.4214L15.968 22.4078C16.0518 22.3762 16.1347 22.3437 16.2176 22.3103L16.2504 22.2977C16.336 22.2625 16.4208 22.2273 16.5046 22.1903L16.5292 22.1803C16.6157 22.1415 16.7023 22.1027 16.7879 22.0621L16.8034 22.0558C16.8899 22.0151 16.9747 21.9736 17.0594 21.9303L17.074 21.924C17.1651 21.8797 17.2489 21.8337 17.3354 21.7877C18.5648 21.1266 19.6589 20.244 20.5614 19.1852L20.5705 19.1753C20.8378 18.5012 20.9646 17.7805 20.9431 17.0566C20.9367 16.7948 20.914 16.4933 20.8757 16.1693Z" fill="#FAFBFB"/>
<path d="M11.9984 0C9.3372 0.000557036 6.75169 0.885592 4.64844 2.51593C2.54519 4.14626 1.0435 6.42941 0.379539 9.00633C-0.284426 11.5833 -0.0730078 14.3078 0.980547 16.7514C2.0341 19.1951 3.87003 21.2192 6.19961 22.5056L6.24322 22.5301C7.81513 23.3924 9.56118 23.8892 11.3515 23.9836H11.3733C11.5805 23.9936 11.7894 24 11.9984 24C12.2073 24 12.439 23.9936 12.6561 23.9818H12.6606C14.4085 23.8882 16.1143 23.4112 17.6572 22.5847L17.6854 22.5701C20.0389 21.3038 21.9024 19.2882 22.9804 16.8427C24.0584 14.3973 24.2893 11.662 23.6363 9.07047C22.9834 6.47895 21.4841 4.17953 19.376 2.53676C17.268 0.89398 14.6719 0.00185492 11.9993 0.00181726L11.9984 0ZM20.538 19.1962L20.5298 19.2062C19.6312 20.2721 18.5418 21.1612 17.3175 21.8279V21.8279C17.2266 21.8743 17.1439 21.9188 17.0558 21.9651L17.0422 21.9715C16.9577 22.0151 16.8723 22.0569 16.786 22.0977L16.7715 22.1041C16.6861 22.145 16.5998 22.184 16.5126 22.2231L16.4889 22.2331C16.4044 22.2703 16.32 22.3058 16.2355 22.3412L16.2019 22.3539C16.1201 22.3878 16.0374 22.4205 15.9538 22.452L15.9148 22.4656C15.833 22.4965 15.7513 22.5265 15.6686 22.5565L15.6177 22.5728L15.3806 22.6519L15.3116 22.6728L15.0881 22.74L15.0136 22.76C14.94 22.7809 14.8664 22.8018 14.7928 22.8208C14.7665 22.8272 14.7392 22.8327 14.7129 22.8399C14.6402 22.8581 14.5675 22.8763 14.4939 22.8926L14.4094 22.9108C14.3368 22.9271 14.265 22.9426 14.1923 22.9571L14.1015 22.9744C14.0306 22.988 13.9607 23.0016 13.8898 23.0134L13.7735 23.0316C13.7099 23.0416 13.6463 23.0525 13.5827 23.0607L13.461 23.077L13.272 23.1006L13.1367 23.1143L12.9595 23.1315L12.7933 23.1433L12.6443 23.1533L12.4626 23.1615L12.3291 23.167C12.2228 23.167 12.1156 23.167 12.0084 23.167C10.3755 23.1684 8.76232 22.8111 7.28277 22.1204C5.80321 21.4297 4.49344 20.4224 3.44604 19.1698C3.18475 18.4979 3.06117 17.7802 3.08266 17.0595C3.09447 16.797 3.11809 16.4972 3.15443 16.1738C3.31977 14.7067 3.75311 12.7499 4.62978 11.4627C4.48998 10.5954 4.45946 9.71398 4.53893 8.83909C4.54438 8.80003 4.54983 8.74825 4.55619 8.67557C4.60616 8.11053 4.73244 6.70063 6.02519 7.07854C7.16623 7.41194 8.49441 8.37034 9.00951 8.7646C10.9602 8.18686 13.0365 8.18686 14.9872 8.7646C15.5023 8.37034 16.8314 7.41194 17.9716 7.07854C19.2652 6.70063 19.3906 8.11053 19.4406 8.67557C19.4469 8.74371 19.4524 8.80003 19.4578 8.83909C19.5373 9.71398 19.5068 10.5954 19.367 11.4627C20.2427 12.7472 20.6761 14.6985 20.8414 16.1647C20.8787 16.4909 20.9023 16.7943 20.915 17.0595C20.9363 17.7887 20.8096 18.5146 20.5425 19.1935L20.538 19.1962ZM21.5636 14.0553C21.3374 13.1133 20.9977 12.0967 20.4889 11.2283C20.5934 10.3841 20.6031 9.53097 20.518 8.68466C20.518 8.68466 20.518 8.67648 20.518 8.66376C20.518 8.65105 20.5135 8.61834 20.5107 8.58201C20.5107 8.5711 20.5107 8.55929 20.5107 8.54658C20.4871 8.27405 20.4281 7.59363 20.1237 7.01949C19.9195 6.62034 19.588 6.30067 19.1816 6.11106C18.6956 5.89212 18.1696 5.9003 17.6654 6.04837C16.5934 6.36088 15.4487 7.10125 14.7656 7.59272C12.9467 7.13487 11.0428 7.13487 9.22391 7.59272C8.54074 7.10489 7.39698 6.36451 6.32498 6.04837C5.81987 5.9003 5.29387 5.89212 4.80875 6.11106C4.40201 6.30039 4.07013 6.62011 3.86576 7.01949C3.56142 7.59363 3.50237 8.27495 3.47875 8.54658C3.47875 8.55929 3.47875 8.5711 3.47875 8.58201C3.47875 8.61834 3.4733 8.64287 3.47057 8.66376C3.46785 8.68466 3.47057 8.68284 3.47057 8.68466C3.38545 9.53097 3.3952 10.3841 3.49964 11.2283C2.9909 12.0967 2.65113 13.1133 2.42492 14.0553C2.19655 15.0146 2.05457 15.9923 2.00067 16.9769C1.15228 15.2726 0.753429 13.3798 0.841955 11.4781C0.930482 9.57634 1.50345 7.72878 2.5065 6.11066C3.50955 4.49254 4.90942 3.15752 6.57329 2.23226C8.23716 1.30701 10.1098 0.82221 12.0137 0.823853C13.9175 0.825496 15.7894 1.31353 17.4516 2.24165C19.1139 3.16978 20.5115 4.50721 21.5117 6.12706C22.512 7.74691 23.0818 9.59546 23.167 11.4973C23.2523 13.3992 22.8501 15.2913 21.9988 16.9941C21.9443 16.0035 21.8002 15.0199 21.5682 14.0553H21.5636Z" fill="black"/>
<path d="M16.1328 18.9089C16.1233 18.8782 16.1083 18.8496 16.0886 18.8246C16.069 18.7999 16.0448 18.7794 16.0174 18.7645C15.9905 18.7496 15.961 18.7404 15.9306 18.7375C15.9013 18.7347 15.8718 18.7381 15.8438 18.7474C15.8143 18.7576 15.7869 18.7734 15.7631 18.7941C15.7393 18.8147 15.7198 18.84 15.7058 18.8686C15.5754 19.0973 15.4015 19.2964 15.1945 19.4536C14.7284 19.8126 14.1694 19.8933 13.5323 19.7022C13.1431 19.5895 12.7977 19.3538 12.5445 19.0283C12.4203 18.8672 12.3293 18.6815 12.2771 18.4827C12.2254 18.262 12.2107 18.0337 12.2337 17.8079C12.2337 17.7944 12.2337 17.7863 12.2337 17.7828C12.2341 17.7783 12.2341 17.7738 12.2337 17.7693C12.9229 17.4669 13.3864 16.7293 13.376 16.4116C13.3647 16.0589 12.5948 15.4909 11.9941 15.4909C11.3935 15.4909 10.6235 16.0589 10.6122 16.4116C10.6027 16.7293 11.0653 17.4669 11.7546 17.7693C11.7541 17.7735 11.7541 17.7777 11.7546 17.7819C11.7546 17.7819 11.7546 17.7944 11.7546 17.8079C11.8535 18.7115 11.2867 19.4527 10.4629 19.6995C8.963 20.1482 8.31633 18.9179 8.29289 18.8641C8.26348 18.8072 8.21358 18.7647 8.15401 18.7456C8.0961 18.7279 8.03378 18.7343 7.98041 18.7636C7.9531 18.7785 7.92891 18.7989 7.90925 18.8235C7.88959 18.8482 7.87483 18.8766 7.86583 18.9071C7.84674 18.9689 7.85204 19.036 7.88058 19.0938C8.04332 19.3903 8.26524 19.6475 8.5316 19.8485C8.90941 20.1386 9.36821 20.2938 9.83884 20.2909C10.097 20.2891 10.3536 20.2495 10.601 20.1733C11.3822 19.94 11.7875 19.4806 12.0002 19.0525C12.2129 19.4806 12.62 19.94 13.3986 20.1733C13.646 20.2495 13.9026 20.2891 14.1607 20.2909C14.6313 20.2938 15.0901 20.1386 15.4679 19.8485C15.7343 19.6475 15.9562 19.3903 16.119 19.0938C16.1333 19.066 16.1421 19.0355 16.145 19.0041C16.1469 18.9718 16.1428 18.9395 16.1328 18.9089Z" fill="black"/>
</g>
<defs>
<clipPath id="clip0_759_1374">
<rect width="24" height="24" fill="white"/>
</clipPath>
</defs>
</svg>
