<svg width="20" height="21" viewBox="0 0 20 21" fill="none" xmlns="http://www.w3.org/2000/svg">
<path fill-rule="evenodd" clip-rule="evenodd" d="M19.1667 0.600098H0.83333C0.61232 0.600098 0.40036 0.687898 0.24408 0.844178C0.0878001 1.00046 0 1.21242 0 1.43344V19.7668C0 19.9878 0.0878001 20.1997 0.24408 20.356C0.40036 20.5123 0.61232 20.6001 0.83333 20.6001H19.1667C19.3877 20.6001 19.5997 20.5123 19.7559 20.356C19.9122 20.1997 20 19.9878 20 19.7668V1.43344C20 1.21242 19.9122 1.00046 19.7559 0.844178C19.5997 0.687898 19.3877 0.600098 19.1667 0.600098ZM16.615 5.33843L15.5425 6.36676C15.4972 6.40131 15.4621 6.4476 15.4411 6.50061C15.4201 6.55361 15.4139 6.61136 15.4233 6.6676V14.2243C15.4139 14.2805 15.4201 14.3382 15.4411 14.3913C15.4621 14.4443 15.4972 14.4905 15.5425 14.5251L16.59 15.5534V15.7793H11.3217V15.5534L12.405 14.5001C12.5117 14.3934 12.5117 14.3618 12.5117 14.1993V8.09176L9.4942 15.7584H9.0867L5.57583 8.09176V13.2276C5.56138 13.3341 5.57135 13.4424 5.60499 13.5445C5.63863 13.6466 5.69506 13.7397 5.77 13.8168L7.18167 15.5284V15.7543H3.18167V15.5284L4.59083 13.8168C4.66517 13.7397 4.72033 13.6462 4.75189 13.5439C4.78345 13.4415 4.79051 13.3332 4.7725 13.2276V7.28926C4.78106 7.20812 4.77043 7.12611 4.74148 7.04982C4.71253 6.97354 4.66607 6.90512 4.60583 6.8501L3.34917 5.33843V5.1126H7.24417L10.255 11.7159L12.9017 5.1126H16.615V5.33843Z" fill="white"/>
</svg>
