<svg width="16" height="16" viewBox="0 0 16 16" fill="none" xmlns="http://www.w3.org/2000/svg">
<path d="M14.125 2.5H1.875C1.80625 2.5 1.75 2.55625 1.75 2.625V3.625C1.75 3.69375 1.80625 3.75 1.875 3.75H14.125C14.1938 3.75 14.25 3.69375 14.25 3.625V2.625C14.25 2.55625 14.1938 2.5 14.125 2.5ZM14.125 12.25H1.875C1.80625 12.25 1.75 12.3062 1.75 12.375V13.375C1.75 13.4438 1.80625 13.5 1.875 13.5H14.125C14.1938 13.5 14.25 13.4438 14.25 13.375V12.375C14.25 12.3062 14.1938 12.25 14.125 12.25ZM14.125 7.375H1.875C1.80625 7.375 1.75 7.43125 1.75 7.5V8.5C1.75 8.56875 1.80625 8.625 1.875 8.625H14.125C14.1938 8.625 14.25 8.56875 14.25 8.5V7.5C14.25 7.43125 14.1938 7.375 14.125 7.375Z" fill="white"/>
</svg>
