<svg width="80" height="80" viewBox="0 0 80 80" fill="none" xmlns="http://www.w3.org/2000/svg">
<path d="M69.9201 8L43.6401 27.44L48.5401 15.98L69.9201 8Z" fill="#E17726" stroke="#E17726" stroke-width="0.25" stroke-linecap="round" stroke-linejoin="round"/>
<path d="M9.32004 8L35.36 27.6L30.7 16L9.32004 8ZM60.46 53.06L53.46 63.74L68.44 67.86L72.72 53.3L60.46 53.06ZM6.54004 53.3L10.8 67.86L25.74 63.74L18.78 53.06L6.54004 53.3Z" fill="#E27625" stroke="#E27625" stroke-width="0.25" stroke-linecap="round" stroke-linejoin="round"/>
<path d="M24.9403 35.0201L20.7803 41.3001L35.5803 41.9801L35.1003 26.0401L24.9403 35.0401V35.0201ZM54.3003 35.0401L43.9803 25.8401L43.6403 41.9801L58.4403 41.3001L54.3003 35.0401ZM25.7403 63.7401L34.7203 59.4201L27.0003 53.4201L25.7403 63.7401ZM44.5403 59.4001L53.4603 63.7401L52.2603 53.4001L44.5403 59.4001Z" fill="#E27625" stroke="#E27625" stroke-width="0.25" stroke-linecap="round" stroke-linejoin="round"/>
<path d="M53.4602 63.7399L44.5402 59.4199L45.2602 65.2199L45.1802 67.6799L53.4602 63.7399ZM25.7402 63.7399L34.0602 67.6799L34.0002 65.2199L34.7202 59.4199L25.7402 63.7399Z" fill="#D5BFB2" stroke="#D5BFB2" stroke-width="0.25" stroke-linecap="round" stroke-linejoin="round"/>
<path d="M34.1998 49.56L26.7998 47.4L32.0398 45L34.2198 49.56H34.1998ZM45.0198 49.56L47.2198 44.98L52.4798 47.38L45.0198 49.58V49.56Z" fill="#233447" stroke="#233447" stroke-width="0.25" stroke-linecap="round" stroke-linejoin="round"/>
<path d="M25.7403 63.7401L27.0403 53.0601L18.7803 53.3L25.7403 63.7401ZM52.2003 53.0601L53.4603 63.7401L60.4603 53.3L52.2003 53.0601ZM58.4603 41.3L43.6603 41.98L45.0203 49.5801L47.2203 44.98L52.4803 47.3801L58.4603 41.3ZM26.8003 47.4001L32.0403 45L34.2203 49.5601L35.6003 41.96L20.8003 41.3L26.8003 47.4001Z" fill="#CC6228" stroke="#CC6228" stroke-width="0.25" stroke-linecap="round" stroke-linejoin="round"/>
<path d="M20.7998 41.3L26.9998 53.4L26.7998 47.4L20.7998 41.3ZM52.4798 47.4L52.2398 53.4L58.4398 41.3L52.4798 47.4ZM35.5998 41.98L34.1998 49.58L35.9598 58.54L36.3598 46.72L35.5998 41.98ZM43.6398 41.98L42.9198 46.7L43.2798 58.54L45.0198 49.56L43.6398 41.96V41.98Z" fill="#E27525" stroke="#E27525" stroke-width="0.25" stroke-linecap="round" stroke-linejoin="round"/>
<path d="M45.0203 49.5599L43.2803 58.5399L44.5403 59.4199L52.2403 53.4199L52.4803 47.3999L45.0203 49.5599ZM26.8003 47.3999L27.0003 53.3999L34.7203 59.3999L35.9603 58.5399L34.2203 49.5599L26.7803 47.3999H26.8003Z" fill="#F5841F" stroke="#F5841F" stroke-width="0.25" stroke-linecap="round" stroke-linejoin="round"/>
<path d="M45.2002 67.68L45.2602 65.22L44.5802 64.66H34.6602L34.0002 65.22L34.0602 67.68L25.7402 63.74L28.6602 66.14L34.5602 70.2H44.6602L50.5802 66.12L53.4602 63.74L45.1802 67.68H45.2002Z" fill="#C0AC9D" stroke="#C0AC9D" stroke-width="0.25" stroke-linecap="round" stroke-linejoin="round"/>
<path d="M44.54 59.4L43.28 58.54H35.96L34.72 59.42L34 65.22L34.66 64.66H44.58L45.26 65.22L44.54 59.42V59.4Z" fill="#161616" stroke="#161616" stroke-width="0.25" stroke-linecap="round" stroke-linejoin="round"/>
<path d="M71.04 28.7L73.24 18L69.92 8L44.52 26.8L54.3 35.02L68.1 39.04L71.14 35.5L69.82 34.54L71.92 32.62L70.32 31.38L72.42 29.78L71.02 28.7H71.04ZM6 17.98L8.24 28.7L6.8 29.76L8.94 31.36L7.34 32.62L9.42 34.54L8.1 35.5L11.14 39.04L24.94 35.04L34.72 26.78L9.32 8L6 17.98Z" fill="#763E1A" stroke="#763E1A" stroke-width="0.25" stroke-linecap="round" stroke-linejoin="round"/>
<path d="M68.1 39.04L54.3 35.04L58.46 41.3L52.26 53.4L60.46 53.3H72.72L68.1 39.04ZM24.94 35.02L11.14 39.04L6.54004 53.3H18.8L27 53.4L20.8 41.3L24.96 35.02H24.94ZM43.64 41.98L44.54 26.78L48.54 15.98H30.7L34.7 26.78L35.6 41.98L35.94 46.74V58.54H43.28L43.32 46.74L43.64 41.98Z" fill="#F5841F" stroke="#F5841F" stroke-width="0.25" stroke-linecap="round" stroke-linejoin="round"/>
</svg>
