<svg width="20" height="19" viewBox="0 0 20 19" fill="none" xmlns="http://www.w3.org/2000/svg">
<path d="M19.9997 9.7348C19.9843 9.3068 19.8469 8.8924 19.6042 8.5417C19.3615 8.191 19.0237 7.9188 18.6317 7.7581C18.2397 7.59735 17.8102 7.55488 17.3949 7.6358C16.9796 7.7167 16.5963 7.9176 16.2912 8.2142C14.5832 7.03832 12.5755 6.38868 10.5107 6.34382L11.4866 1.59946L14.6997 2.28374C14.7379 2.64334 14.9014 2.97738 15.1608 3.2259C15.4203 3.47442 15.7587 3.62113 16.1154 3.63972C16.472 3.6583 16.8235 3.54753 17.1068 3.3273C17.39 3.10706 17.5865 2.79178 17.661 2.43805C17.7354 2.08431 17.6829 1.71529 17.5129 1.39722C17.3429 1.07916 17.0665 0.83287 16.7334 0.70257C16.4003 0.57227 16.0322 0.5665 15.6952 0.68629C15.3583 0.80607 15.0745 1.04357 14.8949 1.35616L11.2164 0.61105C11.1562 0.59768 11.094 0.59654 11.0334 0.60769C10.9728 0.61884 10.915 0.64207 10.8634 0.67601C10.8117 0.70996 10.7672 0.75395 10.7324 0.80545C10.6977 0.85694 10.6733 0.91491 10.6609 0.976L9.5498 6.25259C7.45963 6.2845 5.42428 6.93463 3.69423 8.123C3.46277 7.9024 3.18672 7.7354 2.88522 7.6337C2.58372 7.53189 2.26398 7.49773 1.94815 7.53355C1.63231 7.56936 1.32795 7.6743 1.05614 7.8411C0.784342 8.0079 0.551592 8.2326 0.374032 8.4995C0.196482 8.7665 0.0783516 9.0693 0.0278516 9.3871C-0.0226484 9.7049 -0.00431841 10.03 0.0815716 10.3399C0.167462 10.6498 0.318852 10.937 0.525252 11.1818C0.731662 11.4265 0.988142 11.6229 1.27693 11.7573C1.26002 11.98 1.26002 12.2036 1.27693 12.4263C1.27693 15.8326 5.19565 18.6001 10.0303 18.6001C14.8649 18.6001 18.7836 15.8326 18.7836 12.4263C18.8005 12.2036 18.8005 11.98 18.7836 11.7573C19.1541 11.5708 19.4649 11.2819 19.6801 10.924C19.8953 10.5661 20.0061 10.1538 19.9997 9.7348ZM4.98546 11.2555C4.98546 10.9547 5.07351 10.6607 5.23849 10.4106C5.40347 10.1606 5.63796 9.9657 5.91231 9.8506C6.18666 9.7355 6.48855 9.7054 6.7798 9.764C7.07105 9.8227 7.33857 9.9675 7.54855 10.1802C7.75853 10.3929 7.90153 10.6638 7.95946 10.9588C8.0174 11.2538 7.98766 11.5595 7.87402 11.8374C7.76038 12.1152 7.56794 12.3527 7.32103 12.5198C7.07412 12.6869 6.78384 12.7761 6.48688 12.7761C6.28971 12.7761 6.09447 12.7368 5.91231 12.6603C5.73015 12.5839 5.56463 12.4719 5.42521 12.3307C5.28579 12.1895 5.1752 12.0219 5.09974 11.8374C5.02429 11.6529 4.98546 11.4551 4.98546 11.2555ZM13.7088 15.4372C12.6435 16.2502 11.3329 16.664 10.0002 16.6081C8.6675 16.664 7.35693 16.2502 6.2917 15.4372C6.22785 15.3584 6.19522 15.2584 6.20016 15.1566C6.2051 15.0548 6.24725 14.9585 6.31841 14.8864C6.38957 14.8143 6.48466 14.7716 6.58517 14.7666C6.68569 14.7616 6.78445 14.7947 6.86224 14.8594C7.76494 15.5299 8.8668 15.868 9.9852 15.8173C11.105 15.879 12.212 15.5518 13.1232 14.8898C13.2028 14.8111 13.3101 14.7677 13.4213 14.7692C13.4764 14.7699 13.5307 14.7816 13.5814 14.8036C13.632 14.8256 13.6778 14.8574 13.7163 14.8974C13.7547 14.9373 13.785 14.9845 13.8054 15.0363C13.8259 15.0881 13.836 15.1435 13.8353 15.1993C13.8346 15.255 13.8231 15.3101 13.8014 15.3614C13.7797 15.4127 13.7482 15.4591 13.7088 15.498V15.4372ZM13.4385 12.8369C13.1415 12.8369 12.8513 12.7477 12.6043 12.5806C12.3574 12.4136 12.165 12.1761 12.0514 11.8982C11.9377 11.6203 11.908 11.3146 11.9659 11.0196C12.0239 10.7246 12.1668 10.4537 12.3768 10.241C12.5868 10.0284 12.8543 9.8835 13.1456 9.8249C13.4368 9.7662 13.7387 9.7963 14.0131 9.9114C14.2874 10.0265 14.5219 10.2214 14.6869 10.4715C14.8519 10.7215 14.9399 11.0155 14.9399 11.3163C14.9481 11.5223 14.9148 11.7279 14.842 11.9205C14.7693 12.1131 14.6586 12.2887 14.5168 12.4366C14.3749 12.5845 14.2049 12.7017 14.0169 12.781C13.829 12.8602 13.6271 12.9 13.4235 12.8977L13.4385 12.8369Z" fill="white"/>
</svg>
