<svg width="24" height="21" viewBox="0 0 24 21" fill="none" xmlns="http://www.w3.org/2000/svg">
<path fill-rule="evenodd" clip-rule="evenodd" d="M23.9532 1.12819C23.9338 1.03957 23.8913 0.957656 23.83 0.890746C23.7687 0.823846 23.6908 0.774316 23.6042 0.747186C23.2889 0.684736 22.9626 0.707866 22.6592 0.814186C22.6592 0.814186 1.63021 8.37319 0.429212 9.2102C0.171212 9.3902 0.0842119 9.4952 0.0412119 9.6182C-0.166788 10.2182 0.480212 10.4762 0.480212 10.4762L5.90021 12.2422C5.99185 12.2586 6.08609 12.2531 6.17521 12.2262C7.40721 11.4472 18.5752 4.39219 19.2242 4.15519C19.3242 4.12519 19.4012 4.15519 19.3812 4.23019C19.1232 5.13519 9.47221 13.7082 9.41921 13.7602C9.39339 13.7813 9.37328 13.8086 9.3607 13.8395C9.34813 13.8704 9.34349 13.904 9.34721 13.9372L8.84121 19.2292C8.84121 19.2292 8.62921 20.8762 10.2762 19.2292C11.4442 18.0602 12.5652 17.0922 13.1252 16.6212C14.9892 17.9082 16.9942 19.3312 17.8592 20.0762C18.0047 20.217 18.1771 20.3271 18.3661 20.3998C18.5551 20.4724 18.7569 20.5063 18.9592 20.4992C19.2084 20.4688 19.4425 20.3633 19.6302 20.1966C19.818 20.0299 19.9505 19.81 20.0102 19.5662C20.0102 19.5662 23.8402 4.14319 23.9682 2.07719C23.9812 1.87719 23.9982 1.74519 24.0002 1.60619C24.0065 1.44546 23.9906 1.28463 23.9532 1.12819Z" fill="white"/>
</svg>
