<svg width="23" height="20" viewBox="0 0 23 20" fill="none" xmlns="http://www.w3.org/2000/svg">
<path d="M22.706 2.78962C21.871 3.15962 20.974 3.40962 20.031 3.52262C21.004 2.94041 21.732 2.02408 22.079 0.944619C21.1649 1.48761 20.1644 1.86981 19.121 2.07462C18.4194 1.32548 17.4901 0.828939 16.4773 0.662089C15.4646 0.495239 14.4251 0.667409 13.5202 1.15187C12.6154 1.63633 11.8958 2.40598 11.4732 3.34132C11.0505 4.27666 10.9485 5.32537 11.183 6.32462C9.3307 6.23161 7.51863 5.75017 5.86443 4.91152C4.21022 4.07288 2.75084 2.89578 1.581 1.45662C1.181 2.14662 0.951 2.94662 0.951 3.79862C0.95056 4.56561 1.13943 5.32086 1.50088 5.99735C1.86233 6.67384 2.38516 7.25066 3.023 7.6766C2.28328 7.6531 1.55987 7.4532 0.913 7.09362V7.15362C0.91293 8.2294 1.28503 9.272 1.96618 10.1046C2.64733 10.9372 3.59557 11.5085 4.65 11.7216C3.96379 11.9073 3.24434 11.9346 2.546 11.8016C2.8435 12.7272 3.423 13.5366 4.20337 14.1165C4.98374 14.6964 5.92592 15.0178 6.898 15.0356C5.24783 16.331 3.20989 17.0337 1.112 17.0306C0.74038 17.0307 0.36908 17.009 0 16.9656C2.12948 18.3348 4.60834 19.0614 7.14 19.0586C15.71 19.0586 20.395 11.9606 20.395 5.80462C20.395 5.60462 20.39 5.40262 20.381 5.20262C21.2923 4.54359 22.0789 3.72751 22.704 2.79262L22.706 2.78962Z" fill="white"/>
</svg>
