<svg width="16" height="13" viewBox="0 0 16 13" fill="none" xmlns="http://www.w3.org/2000/svg">
<path d="M15.762 1.89132C15.2054 2.13799 14.6074 2.30465 13.9787 2.37999C14.6274 1.99185 15.1127 1.38096 15.344 0.66132C14.7346 1.02331 14.0676 1.27812 13.372 1.41465C12.9043 0.91523 12.2847 0.584204 11.6096 0.472969C10.9344 0.361734 10.2414 0.476514 9.63819 0.799488C9.03495 1.12246 8.55521 1.63556 8.27347 2.25912C7.99172 2.88268 7.92372 3.58182 8.08003 4.24799C6.84515 4.18598 5.63711 3.86502 4.53431 3.30592C3.43151 2.74683 2.45859 1.96209 1.67869 1.00265C1.41203 1.46265 1.25869 1.99599 1.25869 2.56399C1.2584 3.07532 1.38432 3.57881 1.62528 4.02981C1.86624 4.4808 2.2148 4.86534 2.64003 5.14932C2.14688 5.13363 1.66461 5.00038 1.23336 4.76065V4.80065C1.23331 5.51781 1.48138 6.2129 1.93548 6.76798C2.38958 7.32306 3.02174 7.70394 3.7247 7.84599C3.26722 7.9698 2.78759 7.98803 2.32203 7.89932C2.52036 8.51639 2.90669 9.056 3.42694 9.4426C3.94719 9.8292 4.57531 10.0434 5.22336 10.0553C4.12325 10.9189 2.76462 11.3874 1.36603 11.3853C1.11828 11.3854 0.870746 11.3709 0.624695 11.342C2.04435 12.2548 3.69692 12.7392 5.3847 12.7373C11.098 12.7373 14.2214 8.00532 14.2214 3.90132C14.2214 3.76799 14.218 3.63332 14.212 3.49999C14.8196 3.06064 15.344 2.51658 15.7607 1.89332L15.762 1.89132Z" fill="white"/>
</svg>
