<svg width="24" height="18" viewBox="0 0 24 18" fill="none" xmlns="http://www.w3.org/2000/svg">
<path d="M19.5011 1.46468C18.0016 0.77884 16.409 0.27899 14.7467 0C14.5375 0.36036 14.305 0.84858 14.1422 1.23219C12.3742 0.97645 10.6189 0.97645 8.8752 1.23219C8.71245 0.84858 8.46832 0.36036 8.2707 0C6.59681 0.27899 5.00426 0.77884 3.51517 1.46468C0.504451 5.9052 -0.309263 10.2411 0.0975931 14.5189C2.09699 15.9719 4.02667 16.8554 5.92261 17.4367C6.38759 16.8089 6.80608 16.1347 7.16644 15.4256C6.48059 15.1699 5.82962 14.856 5.2019 14.484C5.36464 14.3678 5.52739 14.2399 5.67851 14.1121C9.46807 15.8441 13.5727 15.8441 17.3157 14.1121C17.4784 14.2399 17.6296 14.3678 17.7923 14.484C17.1646 14.856 16.5136 15.1699 15.8278 15.4256C16.1881 16.1347 16.6066 16.8089 17.0716 17.4367C18.9664 16.8554 20.9077 15.9719 22.8966 14.5189C23.3964 9.5669 22.105 5.2659 19.5011 1.46468ZM7.68952 11.8802C6.55032 11.8802 5.62036 10.8456 5.62036 9.5786C5.62036 8.3115 6.52707 7.2769 7.68952 7.2769C8.84032 7.2769 9.78187 8.3115 9.75862 9.5786C9.75862 10.8456 8.84032 11.8802 7.68952 11.8802ZM15.328 11.8802C14.1887 11.8802 13.2576 10.8456 13.2576 9.5786C13.2576 8.3115 14.1655 7.2769 15.328 7.2769C16.4788 7.2769 17.4203 8.3115 17.3971 9.5786C17.3971 10.8456 16.4904 11.8802 15.328 11.8802Z" fill="white"/>
</svg>
