<svg width="80" height="80" viewBox="0 0 80 80" fill="none" xmlns="http://www.w3.org/2000/svg">
<path d="M80 40C80 17.9086 62.0914 0 40 0C17.9086 0 0 17.9086 0 40C0 62.0914 17.9086 80 40 80C62.0914 80 80 62.0914 80 40Z" fill="url(#paint0_radial_538_1209)"/>
<path d="M26.4391 28.833C33.9286 21.5001 46.0716 21.5001 53.5611 28.833L54.4625 29.7155C54.8369 30.0821 54.8369 30.6766 54.4625 31.0432L51.379 34.0622C51.1918 34.2455 50.8882 34.2455 50.701 34.0622L49.4606 32.8477C44.2357 27.7321 35.7645 27.7321 30.5396 32.8477L29.2112 34.1483C29.024 34.3316 28.7204 34.3316 28.5332 34.1483L25.4498 31.1293C25.0753 30.7627 25.0753 30.1683 25.4498 29.8016L26.4391 28.833ZM59.9379 35.0764L62.6822 37.7633C63.0566 38.1299 63.0566 38.7244 62.6822 39.091L50.3081 51.2065C49.9336 51.5731 49.3265 51.5731 48.952 51.2065C48.952 51.2065 48.952 51.2065 48.952 51.2065L40.1697 42.6078C40.076 42.5161 39.9243 42.5161 39.8306 42.6078C39.8306 42.6078 39.8306 42.6078 39.8306 42.6078L31.0485 51.2065C30.674 51.5731 30.0669 51.5731 29.6924 51.2065C29.6924 51.2065 29.6924 51.2065 29.6924 51.2065L17.318 39.0909C16.9435 38.7242 16.9435 38.1298 17.318 37.7631L20.0622 35.0763C20.4367 34.7096 21.0439 34.7096 21.4183 35.0763L30.2008 43.6751C30.2944 43.7667 30.4462 43.7667 30.5398 43.6751C30.5398 43.6751 30.5398 43.6751 30.5398 43.6751L39.3219 35.0763C39.6963 34.7096 40.3035 34.7096 40.678 35.0763C40.678 35.0763 40.678 35.0763 40.678 35.0763L49.4605 43.6751C49.5541 43.7667 49.7059 43.7667 49.7995 43.6751L58.5818 35.0764C58.9563 34.7098 59.5634 34.7098 59.9379 35.0764Z" fill="white"/>
<defs>
<radialGradient id="paint0_radial_538_1209" cx="0" cy="0" r="1" gradientUnits="userSpaceOnUse" gradientTransform="translate(0 40) scale(80)">
<stop stop-color="#5D9DF6"/>
<stop offset="1" stop-color="#006FFF"/>
</radialGradient>
</defs>
</svg>
