<svg width="20" height="15" viewBox="0 0 20 15" fill="none" xmlns="http://www.w3.org/2000/svg">
<path fill-rule="evenodd" clip-rule="evenodd" d="M19.8333 3.60009C19.8333 3.60009 19.6667 2.18343 19 1.6001C18.25 0.766768 17.4167 0.766768 17 0.766768C14.1667 0.600098 10 0.600098 10 0.600098C10 0.600098 5.83333 0.600098 3 0.766768C2.58333 0.850098 1.75 0.850098 1 1.6001C0.41667 2.18343 0.16667 3.60009 0.16667 3.60009C0.16667 3.60009 0 5.18343 0 6.8501V8.3501C0 9.9334 0.16667 11.6001 0.16667 11.6001C0.16667 11.6001 0.33333 13.0168 1 13.6001C1.75 14.4334 2.75 14.3501 3.16667 14.4334C4.75 14.6001 10 14.6001 10 14.6001C10 14.6001 14.1667 14.6001 17 14.3501C17.4167 14.2668 18.25 14.2668 19 13.5168C19.5833 12.9334 19.8333 11.5168 19.8333 11.5168C19.8333 11.5168 20 9.9334 20 8.2668V6.7668C20 5.18343 19.8333 3.60009 19.8333 3.60009ZM7.91667 10.1834V4.60009L13.3333 7.4334L7.91667 10.1834Z" fill="white"/>
</svg>
